<svg width="800" height="520" viewBox="0 0 800 520" fill="none" xmlns="http://www.w3.org/2000/svg">
  <rect width="800" height="520" rx="36" fill="#EFF6FF"/>
  <circle cx="128" cy="110" r="54" fill="#0EA5E9" fill-opacity="0.18"/>
  <circle cx="684" cy="402" r="70" fill="#7A10FF" fill-opacity="0.12"/>
  <path d="M202 386L308 286L390 332L520 196L618 248" stroke="#0F172A" stroke-width="18" stroke-linecap="round" stroke-linejoin="round"/>
  <circle cx="202" cy="386" r="22" fill="#F97316"/>
  <circle cx="308" cy="286" r="22" fill="#D61C75"/>
  <circle cx="390" cy="332" r="22" fill="#FB7185"/>
  <circle cx="520" cy="196" r="22" fill="#7A10FF"/>
  <circle cx="618" cy="248" r="22" fill="#0EA5E9"/>
  <path d="M520 118L544 166H596L554 198L570 248L520 218L470 248L486 198L444 166H496L520 118Z" fill="#FACC15"/>
  <text x="400" y="92" text-anchor="middle" fill="#111827" font-size="34" font-family="Arial, sans-serif" font-weight="700">Leadership and Decision Making</text>
  <text x="400" y="458" text-anchor="middle" fill="#475569" font-size="23" font-family="Arial, sans-serif">Build courage, responsibility, and value-based influence</text>
</svg>