<svg xmlns="http://www.w3.org/2000/svg" viewBox="0 0 32 32" width="32" height="32" role="img" aria-label="Texas Instruments">
  <rect width="32" height="32" rx="6" fill="#CC0000"/>
  <path fill="#FFFFFF" d="M7 8v16h2.4l.6-1.8 1.3.9 1.2-1.4 1.5.7 1.1-1.5 1.6.8 1-1.4 1.7.9.5-1.6 1.1-.9-.4-1.5 1.2-1-.8-1.4 1.4-.7-.6-1.6 1.3-.4V9l-1.2-.3-1.4.8-1.3-.7-1.5.8-1.2-.8-1.4.7-1-.6-1.3.4-.9-.3z"/>
  <text x="16.5" y="18.3" text-anchor="middle" font-family="Georgia, 'Times New Roman', serif" font-size="8.5" font-weight="700" font-style="italic" fill="#CC0000">ti</text>
</svg>
